<?xml version="1.0" encoding="utf-8"?>
<svg width="181" height="34" viewBox="0 0 194.588 44.087" xmlns="http://www.w3.org/2000/svg">
  <defs/>
  <rect width="194.588" height="44.087" style="fill: rgb(255, 255, 255); stroke: rgb(0, 0, 0);"/>
  <g fill="#020203" transform="matrix(1, 0, 0, 1, 6.789, 5.412)">
    <path d="M13.7898 33.6098C11.7458 33.6098 10.1746 33.2589 9.07629 32.5572C7.97798 31.8555 7.16951 31.0776 6.65086 30.2233H5.82713V32.9691H0.148743V0.927551H5.91484V12.8754H6.73857C7.07417 12.3263 7.52417 11.8076 8.08857 11.3195C8.65298 10.8314 9.40044 10.4271 10.3309 10.1068C11.2615 9.78645 12.4131 9.62628 13.786 9.62628C15.6165 9.62628 17.3098 10.0763 18.8657 10.9763C20.4216 11.8763 21.6725 13.1958 22.6182 14.9348C23.564 16.6737 24.0369 18.7788 24.0369 21.25V21.9822C24.0369 24.4534 23.564 26.5585 22.6182 28.2975C21.6725 30.0364 20.4216 31.3559 18.8657 32.2559C17.3136 33.1598 15.6204 33.6098 13.7898 33.6098ZM12.0509 28.5759C13.8204 28.5759 15.3 28.0038 16.4898 26.8598C17.6797 25.7157 18.2746 24.0453 18.2746 21.8487V21.3911C18.2746 19.1945 17.6873 17.5242 16.5127 16.3801C15.3382 15.236 13.8509 14.664 12.0509 14.664C10.2814 14.664 8.80171 15.236 7.61188 16.3801C6.42205 17.5242 5.82713 19.1945 5.82713 21.3911V21.8487C5.82713 24.0453 6.42205 25.7157 7.61188 26.8598C8.80171 28 10.2814 28.5759 12.0509 28.5759Z"/>
    <path d="M26.8818 32.9691V10.267H32.5564V12.8297H33.3801C33.7157 11.9144 34.2725 11.2432 35.0504 10.8161C35.8284 10.389 36.736 10.1754 37.7733 10.1754H40.5191V15.3009H37.6818C36.2174 15.3009 35.0123 15.6899 34.0665 16.4678C33.1208 17.2458 32.6479 18.4432 32.6479 20.0602V32.9691H26.8818Z"/>
    <path d="M78.2047 33.6098C76.4047 33.6098 74.7191 33.1598 73.1479 32.2598C71.5767 31.3598 70.3183 30.0403 69.3725 28.3013C68.4267 26.5623 67.9539 24.4572 67.9539 21.986V21.2538C67.9539 18.7826 68.4267 16.6776 69.3725 14.9386C70.3183 13.1996 71.5691 11.8801 73.125 10.9801C74.681 10.0801 76.3742 9.63009 78.2047 9.63009C79.5776 9.63009 80.7293 9.79026 81.6598 10.1106C82.5903 10.4309 83.3454 10.8352 83.925 11.3233C84.5047 11.8115 84.9471 12.3301 85.2522 12.8792H86.0759V0.927551H91.842V32.9653H86.1674V30.2195H85.3437C84.825 31.0737 84.0242 31.8517 82.9411 32.5534C81.8581 33.2589 80.2793 33.6098 78.2047 33.6098ZM79.9437 28.5759C81.7132 28.5759 83.1928 28.0038 84.3827 26.8598C85.5725 25.7157 86.1674 24.0453 86.1674 21.8487V21.3911C86.1674 19.1945 85.5801 17.5242 84.4055 16.3801C83.231 15.236 81.7437 14.664 79.9437 14.664C78.1742 14.664 76.6945 15.236 75.5047 16.3801C74.3149 17.5242 73.72 19.1945 73.72 21.3911V21.8487C73.72 24.0453 74.3149 25.7157 75.5047 26.8598C76.6945 28 78.1704 28.5759 79.9437 28.5759Z"/>
    <path d="M51.4335 33.6098C49.6335 33.6098 47.9479 33.1598 46.3767 32.2598C44.8055 31.3598 43.547 30.0403 42.6013 28.3013C41.6555 26.5623 41.1826 24.4572 41.1826 21.986V21.2538C41.1826 18.7826 41.6555 16.6776 42.6013 14.9386C43.547 13.1996 44.7979 11.8801 46.3538 10.9801C47.9097 10.0801 49.603 9.6301 51.4335 9.6301C52.8063 9.6301 53.958 9.79027 54.8885 10.1106C55.8191 10.4309 56.5741 10.8352 57.1538 11.3233C57.7335 11.8115 58.1758 12.3301 58.4809 12.8792H59.3046V10.2517H65.0708V32.9729H59.3962V30.2271H58.5724C58.0538 31.0814 57.253 31.8593 56.1699 32.561C55.0868 33.2589 53.508 33.6098 51.4335 33.6098ZM53.1724 28.5759C54.9419 28.5759 56.4216 28.0038 57.6114 26.8598C58.8013 25.7157 59.3962 24.0454 59.3962 21.8487V21.3911C59.3962 19.1945 58.8089 17.5242 57.6343 16.3801C56.4597 15.236 54.9724 14.664 53.1724 14.664C51.403 14.664 49.9233 15.236 48.7335 16.3801C47.5436 17.5242 46.9487 19.1945 46.9487 21.3911V21.8487C46.9487 24.0454 47.5436 25.7157 48.7335 26.8598C49.9233 28 51.403 28.5759 53.1724 28.5759Z"/>
    <path d="M95.9606 32.9691V10.267H101.635V12.7381H102.459C102.856 11.9754 103.511 11.3119 104.427 10.7475C105.342 10.1831 106.547 9.90085 108.042 9.90085C109.659 9.90085 110.956 10.2136 111.932 10.839C112.908 11.4644 113.656 12.2805 114.174 13.2873H114.998C115.517 12.311 116.249 11.5025 117.195 10.8619C118.14 10.2212 119.483 9.90085 121.222 9.90085C122.625 9.90085 123.899 10.1983 125.043 10.7932C126.187 11.3881 127.102 12.2881 127.789 13.4932C128.475 14.6983 128.818 16.2161 128.818 18.0466V32.9691H123.052V18.4585C123.052 17.2076 122.732 16.2695 122.091 15.6441C121.45 15.0186 120.55 14.7059 119.391 14.7059C118.079 14.7059 117.065 15.1254 116.348 15.9644C115.631 16.8034 115.272 18.0009 115.272 19.5568V32.9691H109.506V18.4585C109.506 17.2076 109.186 16.2695 108.545 15.6441C107.905 15.0186 107.005 14.7059 105.845 14.7059C104.534 14.7059 103.519 15.1254 102.802 15.9644C102.085 16.8034 101.727 18.0009 101.727 19.5568V32.9691H95.9606Z"/>
    <path d="M141.548 33.6098C139.748 33.6098 138.062 33.1598 136.491 32.2598C134.92 31.3598 133.661 30.0403 132.716 28.3013C131.77 26.5623 131.297 24.4572 131.297 21.986V21.2538C131.297 18.7826 131.77 16.6776 132.716 14.9386C133.661 13.1996 134.912 11.8801 136.468 10.9801C138.024 10.0801 139.717 9.6301 141.548 9.6301C142.921 9.6301 144.072 9.79027 145.003 10.1106C145.933 10.4309 146.689 10.8352 147.268 11.3233C147.848 11.8115 148.29 12.3301 148.595 12.8792H149.419V10.2517H155.185V32.9729H149.511V30.2271H148.687C148.168 31.0814 147.367 31.8593 146.284 32.561C145.201 33.2589 143.622 33.6098 141.548 33.6098ZM143.287 28.5759C145.056 28.5759 146.536 28.0038 147.726 26.8598C148.916 25.7157 149.511 24.0454 149.511 21.8487V21.3911C149.511 19.1945 148.923 17.5242 147.749 16.3801C146.574 15.236 145.087 14.664 143.287 14.664C141.517 14.664 140.038 15.236 138.848 16.3801C137.658 17.5242 137.063 19.1945 137.063 21.3911V21.8487C137.063 24.0454 137.658 25.7157 138.848 26.8598C140.038 28 141.517 28.5759 143.287 28.5759Z"/>
    <path d="M155.189 32.9691L170.928 21.517L155.28 10.2479H162.351L167.022 16.2809H167.968L172.659 10.2479H179.779L171.076 21.517L180.004 32.9691H172.655L168.025 26.8445H167.045L162.347 32.9691H155.189Z"/>
  </g>
  <path fill="#FAD600" d="M 161.978 15.66 L 161.978 38.381 L 177.717 26.929 L 162.069 15.66 L 161.978 15.66 Z"/>
</svg>